<svg width="134" height="129" viewBox="0 0 134 129" fill="none" xmlns="http://www.w3.org/2000/svg">
<path d="M75.7093 50.9021C87.9031 63.0959 97.2952 75.6527 102.65 86.0406C105.333 91.2467 106.941 95.7896 107.443 99.3976C107.951 103.052 107.277 105.292 106.044 106.525C104.811 107.759 102.57 108.432 98.9161 107.924C95.3081 107.423 90.7645 105.816 85.5584 103.132C75.1705 97.7774 62.6137 88.3853 50.4199 76.1915C38.2262 63.9978 28.8341 51.4409 23.4794 41.053C20.7959 35.847 19.1886 31.3033 18.6871 27.6953C18.1791 24.0409 18.8529 21.8009 20.0861 20.5676C21.3194 19.3346 23.5596 18.6607 27.2138 19.1686C30.8217 19.6702 35.3649 21.2782 40.5708 23.9616C50.9587 29.3163 63.5156 38.7084 75.7093 50.9021Z" stroke="url(#paint0_linear_3752_8123)" stroke-width="4.56034"/>
<path d="M80.9463 63.5469C80.9463 80.7915 78.7085 96.3117 75.1494 107.443C73.3657 113.022 71.2903 117.371 69.0937 120.277C66.869 123.22 64.8084 124.328 63.0644 124.328C61.3204 124.328 59.26 123.22 57.0352 120.277C54.8385 117.371 52.7622 113.022 50.9785 107.443C47.4194 96.3117 45.1817 80.7915 45.1816 63.5469C45.1816 46.3024 47.4195 30.7821 50.9785 19.6504C52.7622 14.0716 54.8386 9.7223 57.0352 6.81641C59.26 3.87316 61.3204 2.76562 63.0645 2.76562C64.8084 2.76576 66.869 3.87334 69.0937 6.81641C71.2902 9.7223 73.3658 14.0718 75.1494 19.6504C78.7085 30.7821 80.9463 46.3023 80.9463 63.5469Z" stroke="url(#paint1_linear_3752_8123)" stroke-width="4.56034"/>
<path d="M63.0674 81.4292C45.8227 81.4292 30.3026 79.1914 19.1709 75.6323C13.5921 73.8486 9.24279 71.7732 6.33692 69.5766C3.39385 67.3519 2.28627 65.2913 2.28613 63.5474C2.28613 61.8033 3.39381 59.7429 6.33692 57.5181C9.24281 55.3214 13.592 53.2451 19.1709 51.4614C30.3026 47.9023 45.8227 45.6646 63.0674 45.6645C80.3119 45.6645 95.8322 47.9024 106.964 51.4614C112.543 53.2451 116.892 55.3215 119.798 57.5181C122.741 59.7429 123.849 61.8033 123.849 63.5474C123.848 65.2913 122.741 67.3519 119.798 69.5767C116.892 71.7732 112.542 73.8487 106.964 75.6323C95.8322 79.1914 80.3119 81.4292 63.0674 81.4292Z" stroke="url(#paint2_linear_3752_8123)" stroke-width="4.56034"/>
<path d="M75.7104 76.192C63.5166 88.3858 50.9599 97.7778 40.5719 103.132C35.3659 105.816 30.8229 107.424 27.2149 107.925C23.5607 108.433 21.3205 107.76 20.0872 106.526C18.854 105.293 18.1803 103.053 18.6882 99.3987C19.1897 95.7907 20.7969 91.2472 23.4805 86.041C28.8351 75.6531 38.2272 63.0964 50.421 50.9025C62.6147 38.7088 75.1716 29.3167 85.5595 23.962C90.7656 21.2785 95.3092 19.6713 98.9172 19.1697C102.572 18.6618 104.812 19.3355 106.045 20.5688C107.278 21.802 107.952 24.0423 107.444 27.6965C106.942 31.3044 105.334 35.8476 102.651 41.0535C97.2963 51.4414 87.9042 63.9982 75.7104 76.192Z" stroke="url(#paint3_linear_3752_8123)" stroke-width="4.56034"/>
<defs>
<linearGradient id="paint0_linear_3752_8123" x1="18.4735" y1="18.9555" x2="107.656" y2="108.138" gradientUnits="userSpaceOnUse">
<stop stop-color="#00FFA5"/>
<stop offset="0.552885" stop-color="#000A03"/>
<stop offset="1" stop-color="#00FFA5"/>
</linearGradient>
<linearGradient id="paint1_linear_3752_8123" x1="63.0641" y1="0.485351" x2="63.0641" y2="126.608" gradientUnits="userSpaceOnUse">
<stop stop-color="#00FFA5"/>
<stop offset="0.485577" stop-color="#000A03"/>
<stop offset="1" stop-color="#00FFA5"/>
</linearGradient>
<linearGradient id="paint2_linear_3752_8123" x1="0.00641045" y1="63.547" x2="126.129" y2="63.547" gradientUnits="userSpaceOnUse">
<stop stop-color="#00FFA5"/>
<stop offset="0.519231" stop-color="#000A03"/>
<stop offset="1" stop-color="#00FFA5"/>
</linearGradient>
<linearGradient id="paint3_linear_3752_8123" x1="18.475" y1="108.138" x2="107.657" y2="18.9561" gradientUnits="userSpaceOnUse">
<stop stop-color="#00FFA5"/>
<stop offset="0.514423" stop-color="#000A03"/>
<stop offset="1" stop-color="#00FFA5"/>
</linearGradient>
</defs>
</svg>
