<svg width="104" height="101" viewBox="0 0 104 101" fill="none" xmlns="http://www.w3.org/2000/svg">
<path fill-rule="evenodd" clip-rule="evenodd" d="M51.7389 5.20825C53.4648 5.20825 54.8639 6.60738 54.8639 8.33325V16.6666C54.8639 18.3925 53.4648 19.7916 51.7389 19.7916C50.0131 19.7916 48.6139 18.3925 48.6139 16.6666V8.33325C48.6139 6.60738 50.0131 5.20825 51.7389 5.20825ZM24.5292 22.7902C25.7496 21.5698 27.7283 21.5698 28.9486 22.7902L30.3789 24.2205C31.5993 25.4408 31.5993 27.4195 30.3789 28.6399C29.1585 29.8603 27.1798 29.8603 25.9595 28.6399L24.5292 27.2096C23.3088 25.9893 23.3088 24.0106 24.5292 22.7902ZM78.9485 22.7902C80.1689 24.0106 80.1689 25.9893 78.9485 27.2096L77.5185 28.6399C76.2981 29.8603 74.3193 29.8603 73.0989 28.6399C71.8785 27.4195 71.8785 25.4408 73.0989 24.2205L74.5293 22.7902C75.7498 21.5698 77.7281 21.5698 78.9485 22.7902ZM6.94727 49.9999C6.94727 48.2741 8.34639 46.8749 10.0723 46.8749H18.4056C20.1315 46.8749 21.5306 48.2741 21.5306 49.9999C21.5306 51.7257 20.1315 53.1249 18.4056 53.1249H10.0723C8.34639 53.1249 6.94727 51.7257 6.94727 49.9999ZM81.9473 49.9999C81.9473 48.2741 83.3464 46.8749 85.0723 46.8749H93.4056C95.1314 46.8749 96.5306 48.2741 96.5306 49.9999C96.5306 51.7257 95.1314 53.1249 93.4056 53.1249H85.0723C83.3464 53.1249 81.9473 51.7257 81.9473 49.9999ZM30.378 71.3607C31.5984 72.5812 31.5984 74.5599 30.378 75.7803L28.9486 77.2095C27.7283 78.4299 25.7496 78.4299 24.5292 77.2095C23.3088 75.9891 23.3088 74.0107 24.5292 72.7903L25.9586 71.3607C27.179 70.1403 29.1576 70.1403 30.378 71.3607ZM73.0998 71.3607C74.3202 70.1403 76.2989 70.1403 77.5193 71.3607L78.9485 72.7903C80.1689 74.0107 80.1689 75.9891 78.9485 77.2095C77.7281 78.4299 75.7498 78.4299 74.5293 77.2095L73.0998 75.7803C71.8793 74.5599 71.8793 72.5812 73.0998 71.3607ZM51.7389 80.2083C53.4648 80.2083 54.8639 81.6074 54.8639 83.3333V91.6666C54.8639 93.3924 53.4648 94.7916 51.7389 94.7916C50.0131 94.7916 48.6139 93.3924 48.6139 91.6666V83.3333C48.6139 81.6074 50.0131 80.2083 51.7389 80.2083Z" fill="url(#paint0_linear_3654_3027)"/>
<path d="M30.9062 46.0812C30.9062 56.6741 39.28 62.3191 45.41 67.3716C47.5729 69.1545 49.6562 70.8332 51.7396 70.8332C53.8229 70.8332 55.9062 69.1545 58.0692 67.3716C64.1992 62.3191 72.5729 56.6741 72.5729 46.0812C72.5729 35.4882 61.1142 27.9758 51.7396 38.1598C42.3649 27.9758 30.9062 35.4882 30.9062 46.0812Z" fill="url(#paint1_linear_3654_3027)"/>
<defs>
<linearGradient id="paint0_linear_3654_3027" x1="51.7195" y1="-5.49999" x2="51.7393" y2="93.5" gradientUnits="userSpaceOnUse">
<stop offset="0.04611" stop-color="#DDB8DB" stop-opacity="0"/>
<stop offset="0.495192" stop-color="#820F85"/>
<stop offset="0.662077" stop-color="#9E429F" stop-opacity="0.697079"/>
<stop offset="0.998066" stop-color="#9E429F" stop-opacity="0.124245"/>
</linearGradient>
<linearGradient id="paint1_linear_3654_3027" x1="51.7396" y1="33.3333" x2="51.7396" y2="70.8332" gradientUnits="userSpaceOnUse">
<stop stop-color="#460067"/>
<stop offset="1" stop-color="#8E128B"/>
</linearGradient>
</defs>
</svg>
