<?xml version="1.0" encoding="UTF-8" standalone="no"?>
<svg
   xmlns:dc="http://purl.org/dc/elements/1.1/"
   xmlns:cc="http://creativecommons.org/ns#"
   xmlns:rdf="http://www.w3.org/1999/02/22-rdf-syntax-ns#"
   xmlns:svg="http://www.w3.org/2000/svg"
   xmlns="http://www.w3.org/2000/svg"
   xmlns:sodipodi="http://sodipodi.sourceforge.net/DTD/sodipodi-0.dtd"
   xmlns:inkscape="http://www.inkscape.org/namespaces/inkscape"
   version="1.0"
   viewBox="0 0 9086.1636 9086.2069"
   id="svg30"
   sodipodi:docname="akeneo-logo.svg"
   width="9086.1641"
   height="9086.207"
   inkscape:version="0.92.5 (2060ec1f9f, 2020-04-08)">
  <defs
     id="defs34" />
  <sodipodi:namedview
     pagecolor="#ffffff"
     bordercolor="#666666"
     borderopacity="1"
     objecttolerance="10"
     gridtolerance="10"
     guidetolerance="10"
     inkscape:pageopacity="0"
     inkscape:pageshadow="2"
     inkscape:window-width="1920"
     inkscape:window-height="1043"
     id="namedview32"
     showgrid="false"
     inkscape:snap-bbox="true"
     inkscape:bbox-paths="true"
     inkscape:bbox-nodes="true"
     inkscape:snap-bbox-edge-midpoints="true"
     inkscape:snap-bbox-midpoints="true"
     inkscape:object-paths="true"
     inkscape:snap-intersection-paths="true"
     inkscape:snap-smooth-nodes="true"
     inkscape:snap-midpoints="true"
     inkscape:snap-object-midpoints="true"
     inkscape:snap-center="true"
     inkscape:snap-text-baseline="true"
     inkscape:zoom="0.025973557"
     inkscape:cx="24304.014"
     inkscape:cy="-962.51715"
     inkscape:window-x="0"
     inkscape:window-y="0"
     inkscape:window-maximized="1"
     inkscape:current-layer="svg30" />
  <metadata
     id="metadata2">
    <rdf:RDF>
      <cc:Work
         rdf:about="">
        <dc:format>image/svg+xml</dc:format>
        <dc:type
           rdf:resource="http://purl.org/dc/dcmitype/StillImage" />
        <dc:title></dc:title>
      </cc:Work>
    </rdf:RDF>
  </metadata>
  <g
     id="g51"
     transform="translate(181.98538,0.00371024)">
    <g
       style="fill:#5a1e80"
       id="g6"
       transform="translate(-413.45,-293.84)">
      <path
         inkscape:connector-curvature="0"
         id="path4"
         d="m 7315,9339 c -27,-21 -117,-85 -199,-140 C 6638,8873 6129,8643 5588,8510 5178,8408 4815,8362 4075,8315 3236,8262 2934,8225 2550,8129 2240,8051 2067,7969 1869,7804 1251,7290 750,6024 515,4385 463,4026 403,3454 415,3442 c 2,-2 93,63 202,145 557,419 1109,773 1634,1046 518,270 1093,482 1754,646 425,105 705,157 1273,235 l 32,5 70,-139 c 397,-792 719,-1750 844,-2510 110,-663 141,-1560 85,-2408 -6,-90 -9,-166 -7,-168 5,-5 300,232 478,385 1215,1039 2021,2068 2275,2907 58,192 79,325 78,514 0,149 -3,178 -31,300 -53,234 -156,498 -317,821 -110,218 -187,358 -422,759 -258,442 -358,622 -468,845 -291,591 -448,1128 -505,1730 -16,162 -23,541 -13,693 5,87 5,132 -2,131 -5,0 -32,-18 -60,-40 z" />
    </g>
    <g
       style="fill:#692e8d"
       id="g10"
       transform="translate(-413.45,-293.84)">
      <path
         inkscape:connector-curvature="0"
         id="path8"
         d="m 7334,9323 c -27,-32 -82,-98 -123,-148 C 6974,8891 6559,8465 6280,8218 5704,7710 5113,7304 4527,7014 l -118,-59 -26,30 c -317,376 -589,631 -868,817 -189,126 -430,233 -615,273 -119,26 -327,31 -435,10 -49,-9 -112,-20 -139,-25 -27,-5 -52,-13 -55,-17 -3,-4 -15,-10 -26,-11 -11,-2 -54,-21 -96,-42 C 1668,7751 1251,7139 935,6208 834,5913 701,5424 666,5225 c -3,-16 -19,-94 -36,-173 -55,-262 -117,-648 -160,-1004 -25,-212 -61,-600 -55,-606 2,-2 93,63 202,145 557,419 1109,773 1634,1046 518,270 1093,482 1754,646 425,105 705,157 1273,235 l 32,5 70,-139 c 397,-792 719,-1750 844,-2510 110,-663 141,-1560 85,-2408 -6,-90 -9,-166 -7,-168 5,-5 300,232 478,385 785,670 1389,1325 1804,1954 290,440 460,822 528,1185 31,167 30,407 -1,546 -13,55 -27,106 -31,115 -5,9 -22,49 -39,88 -71,177 -265,399 -463,531 -166,110 -359,202 -570,270 -277,91 -528,141 -933,189 l -70,8 -12,90 c -126,946 -56,2013 202,3070 56,231 157,581 180,628 7,15 12,27 10,27 -2,0 -25,-26 -51,-57 z" />
    </g>
    <g
       style="fill:#7a479a"
       id="g22"
       transform="translate(-413.45,-293.84)">
      <path
         inkscape:connector-curvature="0"
         id="path12"
         d="M 7314,9298 C 7042,8950 6574,8468 6175,8125 5465,7514 4776,7085 4035,6794 3694,6660 3598,6619 3401,6524 2963,6312 2563,6056 2186,5748 1594,5263 1065,4638 675,3960 595,3822 408,3449 415,3442 c 2,-2 93,63 202,145 557,419 1109,773 1634,1046 518,270 1093,482 1754,646 425,105 705,157 1273,235 l 32,5 70,-139 c 397,-792 719,-1750 844,-2510 110,-663 141,-1560 85,-2408 -6,-90 -9,-166 -7,-168 8,-8 173,279 268,466 323,640 541,1341 639,2060 41,295 54,502 54,835 0,519 -44,898 -168,1435 -133,578 -187,1228 -155,1885 36,741 175,1549 380,2214 28,90 49,165 47,167 -2,2 -26,-24 -53,-58 z" />
      <path
         inkscape:connector-curvature="0"
         id="path14"
         d="m 8699,2828 c -7,-13 -19,-34 -27,-48 -14,-24 -13,-24 3,-5 20,24 48,75 41,75 -3,0 -11,-10 -17,-22 z" />
      <path
         inkscape:connector-curvature="0"
         id="path16"
         d="m 8636,2725 c -9,-14 -23,-37 -32,-52 l -16,-28 20,24 c 24,29 55,81 49,81 -3,0 -12,-11 -21,-25 z" />
      <path
         inkscape:connector-curvature="0"
         id="path18"
         d="m 8265,2204 c -212,-268 -397,-476 -664,-746 -102,-103 -182,-190 -179,-193 6,-6 329,328 489,505 153,170 481,570 466,570 -3,0 -53,-61 -112,-136 z" />
      <path
         inkscape:connector-curvature="0"
         id="path20"
         d="m 7364,1218 -29,-33 33,29 c 17,17 32,31 32,33 0,8 -8,1 -36,-29 z" />
    </g>
    <g
       style="fill:#a273be"
       id="g28"
       transform="translate(-413.45,-293.84)">
      <path
         inkscape:connector-curvature="0"
         id="path24"
         d="m 4300,6901 c -102,-46 -211,-91 -510,-207 -186,-72 -643,-297 -830,-410 C 2045,5737 1294,4985 735,4055 618,3861 411,3455 423,3444 c 1,-1 76,54 167,123 552,418 1133,792 1661,1066 518,270 1093,482 1754,646 425,105 705,157 1273,235 l 32,5 70,-139 c 397,-792 719,-1750 844,-2510 91,-549 129,-1234 108,-1902 -7,-200 -17,-430 -23,-512 -6,-81 -9,-150 -6,-152 8,-8 171,276 262,457 341,675 588,1499 659,2199 28,272 31,348 31,705 -1,566 -32,832 -165,1421 -21,94 -51,238 -65,320 -15,82 -28,150 -30,152 -14,15 -328,23 -715,19 -414,-5 -654,-17 -939,-49 -21,-3 -33,15 -113,162 -230,422 -461,789 -680,1081 -64,86 -123,161 -130,166 -10,8 -41,-1 -118,-36 z" />
      <path
         inkscape:connector-curvature="0"
         id="path26"
         d="m 7520,1363 -105,-108 108,105 c 59,57 107,106 107,107 0,8 -13,-5 -110,-104 z" />
    </g>
  </g>
</svg>
