<svg data-name="CIGA Logo white" xmlns="http://www.w3.org/2000/svg" width="79.262" height="42.391" viewBox="0 0 79.262 42.391">
    <path data-name="Path 146" d="M65.87 10.822a2.57 2.57 0 0 1 2.57 2.57l.027 1.819h10.795v-1.743A13.467 13.467 0 0 0 65.8 0H13.467A13.467 13.467 0 0 0 0 13.468v1.744h10.795l.027-1.819a2.57 2.57 0 0 1 2.57-2.57z" style="fill:#fff"/>
    <path data-name="Path 147" d="M13.392 105.268a2.57 2.57 0 0 1-2.57-2.569l-.027-1.82H0v1.744a13.468 13.468 0 0 0 13.467 13.467H65.8a13.467 13.467 0 0 0 13.467-13.468v-1.744H68.468l-.027 1.82a2.57 2.57 0 0 1-2.57 2.569z" transform="translate(0 -73.699)" style="fill:#fff"/>
    <g data-name="Group 484">
        <path data-name="Path 148" d="M57.6 62.62c0 3.312.883 4.9 3.673 4.9h5.268c2.89 0 3.488-1.285 3.488-3.655v-.887h-1.31v.822c0 1.774-.541 2.28-2.42 2.28h-4.88c-1.338 0-2.42-.507-2.42-2.787v-4.926c0-2.28 1.082-2.787 2.42-2.787h4.84c1.281 0 2.363.109 2.363 2.335v.6h1.225V57.39c0-1.755-.7-3.257-3.232-3.257h-5.339c-2.79 0-3.673 1.592-3.673 4.9z" transform="translate(-42.084 -39.548)" style="fill:#fff"/>
        <path data-name="Rectangle 109" transform="translate(30.596 14.729)" style="fill:#fff" d="M0 0h1.395v13.102H0z"/>
        <path data-name="Path 150" d="M142.274 60.882H135.6v1.448h5.281v1.321c0 1.81-.854 2.425-2.249 2.425h-5.453c-1.338 0-2.42-.507-2.42-2.787v-4.922c0-2.28 1.082-2.787 2.42-2.787h3.616c3.445 0 4.029.181 4.029 2.624h1.31v-.47c0-3.022-1.979-3.6-3.83-3.6h-5.267c-2.79 0-3.673 1.593-3.673 4.9v3.586c0 3.312.883 4.9 3.673 4.9h5.752c2.577 0 3.488-1.267 3.488-4.832z" transform="translate(-94.509 -39.548)" style="fill:#fff"/>
        <path data-name="Path 152" d="M193.921 63.556H187l3.459-7.438zm-10.45 4.216h1.58L186.333 65h8.257l1.281 2.769h1.58l-6.122-13.1h-1.737z" transform="translate(-134.04 -39.941)" style="fill:#fff"/>
    </g>
</svg>
